<?xml version="1.0" encoding="utf-8"?>
<!-- Generator: Adobe Illustrator 19.0.0, SVG Export Plug-In . SVG Version: 6.00 Build 0)  -->
<svg version="1.1" id="图层_1" xmlns="http://www.w3.org/2000/svg" xmlns:xlink="http://www.w3.org/1999/xlink" x="0px" y="0px"
	 viewBox="-439 441 200 200" style="enable-background:new -439 441 200 200;" xml:space="preserve">
<style type="text/css">
	.st0{fill:#515151;}
</style>
<path class="st0" d="M-340.3,544.1c29.3,0,53.1,23.8,53.1,53.1h9.4c0-34.5-28-62.5-62.5-62.5s-62.5,28-62.5,62.5h9.4
	C-393.4,567.9-369.6,544.1-340.3,544.1z"/>
<path class="st0" d="M-340.8,469.1c-20.7,0-37.5,16.8-37.5,37.5c0,20.7,16.8,37.5,37.5,37.5c20.7,0,37.5-16.8,37.5-37.5
	C-303.3,485.9-320.1,469.1-340.8,469.1z M-340.8,534.8c-15.5,0-28.1-12.6-28.1-28.1s12.6-28.1,28.1-28.1c15.5,0,28.1,12.6,28.1,28.1
	S-325.3,534.8-340.8,534.8L-340.8,534.8z"/>
</svg>
